<svg xmlns="http://www.w3.org/2000/svg" xmlns:xlink="http://www.w3.org/1999/xlink" width="500" zoomAndPan="magnify" viewBox="0 0 375 374.999991" height="500" preserveAspectRatio="xMidYMid meet" version="1.0"><defs><clipPath id="357dbdb5ba"><path d="M 28 55 L 185.90625 55 L 185.90625 320 L 28 320 Z M 28 55 " clip-rule="nonzero"/></clipPath><clipPath id="953a5830ff"><path d="M 161 75 L 185.90625 75 L 185.90625 89 L 161 89 Z M 161 75 " clip-rule="nonzero"/></clipPath><clipPath id="5fa6ca3f14"><path d="M 122 142 L 185.90625 142 L 185.90625 270 L 122 270 Z M 122 142 " clip-rule="nonzero"/></clipPath><clipPath id="1acd99e88d"><path d="M 139 159 L 185.90625 159 L 185.90625 214 L 139 214 Z M 139 159 " clip-rule="nonzero"/></clipPath><clipPath id="4f69f6b3e6"><path d="M 179 0 L 185.90625 0 L 185.90625 33 L 179 33 Z M 179 0 " clip-rule="nonzero"/></clipPath><clipPath id="19e9da83e9"><path d="M 179 341 L 185.90625 341 L 185.90625 375 L 179 375 Z M 179 341 " clip-rule="nonzero"/></clipPath><clipPath id="0caf83aeb1"><path d="M 185.328125 55 L 347 55 L 347 320 L 185.328125 320 Z M 185.328125 55 " clip-rule="nonzero"/></clipPath><clipPath id="42e79b6669"><path d="M 185.328125 75 L 214 75 L 214 89 L 185.328125 89 Z M 185.328125 75 " clip-rule="nonzero"/></clipPath><clipPath id="88a66d8b44"><path d="M 185.328125 142 L 250 142 L 250 270 L 185.328125 270 Z M 185.328125 142 " clip-rule="nonzero"/></clipPath><clipPath id="6b9f200433"><path d="M 185.328125 159 L 194 159 L 194 214 L 185.328125 214 Z M 185.328125 159 " clip-rule="nonzero"/></clipPath><clipPath id="83531f4417"><path d="M 185.328125 0 L 194 0 L 194 33 L 185.328125 33 Z M 185.328125 0 " clip-rule="nonzero"/></clipPath><clipPath id="36c214f875"><path d="M 185.328125 341 L 194 341 L 194 375 L 185.328125 375 Z M 185.328125 341 " clip-rule="nonzero"/></clipPath></defs><g clip-path="url(#357dbdb5ba)"><path fill="#000000" d="M 316.84375 97.089844 L 250.09375 97.089844 L 241.523438 68.050781 C 239.292969 60.527344 231.660156 55.257812 222.9375 55.257812 L 151.796875 55.257812 C 143.078125 55.257812 135.425781 60.507812 133.210938 68.050781 L 124.644531 97.074219 L 106.898438 97.074219 L 106.898438 86.339844 C 106.898438 80.003906 101.746094 74.867188 95.429688 74.867188 L 67.585938 74.867188 C 61.25 74.867188 56.117188 80.023438 56.117188 86.339844 L 56.117188 97.246094 C 40.660156 98.21875 28.355469 110.953125 28.355469 126.648438 L 28.355469 290.109375 C 28.355469 306.414062 41.597656 319.667969 57.894531 319.667969 L 316.84375 319.667969 C 333.140625 319.667969 346.382812 306.414062 346.382812 290.109375 L 346.382812 126.648438 C 346.382812 110.34375 333.140625 97.089844 316.84375 97.089844 Z M 146.457031 71.964844 C 146.875 70.53125 148.992188 69.0625 151.816406 69.0625 L 222.9375 69.0625 C 225.761719 69.0625 227.878906 70.53125 228.300781 71.945312 L 235.703125 97.074219 L 139.050781 97.074219 Z M 69.894531 88.691406 L 93.101562 88.691406 L 93.101562 97.089844 L 69.894531 97.089844 Z M 57.894531 110.894531 L 316.84375 110.894531 C 325.523438 110.894531 332.585938 117.960938 332.585938 126.648438 L 332.585938 157.425781 L 253.527344 157.425781 C 238.375 136.617188 213.894531 123.019531 186.242188 123.019531 C 158.589844 123.019531 134.128906 136.617188 118.957031 157.425781 L 42.148438 157.425781 L 42.148438 126.648438 C 42.148438 117.960938 49.210938 110.894531 57.894531 110.894531 Z M 186.261719 136.824219 C 224.578125 136.824219 255.757812 168.023438 255.757812 206.363281 C 255.757812 244.703125 224.578125 275.902344 186.261719 275.902344 C 147.945312 275.902344 116.761719 244.703125 116.761719 206.363281 C 116.761719 168.023438 147.945312 136.824219 186.261719 136.824219 Z M 316.84375 305.863281 L 57.894531 305.863281 C 49.210938 305.863281 42.148438 298.796875 42.148438 290.109375 L 42.148438 171.230469 L 110.828125 171.230469 C 105.828125 181.925781 102.964844 193.800781 102.964844 206.363281 C 102.964844 252.324219 140.328125 289.707031 186.261719 289.707031 C 232.191406 289.707031 269.554688 252.324219 269.554688 206.363281 C 269.554688 193.800781 266.695312 181.925781 261.695312 171.230469 L 332.585938 171.230469 L 332.585938 290.109375 C 332.585938 298.796875 325.523438 305.863281 316.84375 305.863281 Z M 316.84375 305.863281 " fill-opacity="1" fill-rule="nonzero"/></g><g clip-path="url(#953a5830ff)"><path fill="#000000" d="M 206.546875 75.152344 L 168.191406 75.152344 C 164.375 75.152344 161.28125 78.246094 161.28125 82.066406 C 161.28125 85.882812 164.375 88.976562 168.191406 88.976562 L 206.566406 88.976562 C 210.382812 88.976562 213.472656 85.882812 213.472656 82.066406 C 213.472656 78.246094 210.363281 75.152344 206.546875 75.152344 Z M 206.546875 75.152344 " fill-opacity="1" fill-rule="nonzero"/></g><g clip-path="url(#5fa6ca3f14)"><path fill="#000000" d="M 186.261719 269.890625 C 151.246094 269.890625 122.773438 241.382812 122.773438 206.363281 C 122.773438 171.328125 151.265625 142.839844 186.261719 142.839844 C 221.277344 142.839844 249.75 171.347656 249.75 206.363281 C 249.75 241.382812 221.257812 269.890625 186.261719 269.890625 Z M 186.261719 156.644531 C 158.859375 156.644531 136.570312 178.945312 136.570312 206.363281 C 136.570312 233.78125 158.859375 256.085938 186.261719 256.085938 C 213.664062 256.085938 235.953125 233.78125 235.953125 206.363281 C 235.953125 178.945312 213.664062 156.644531 186.261719 156.644531 Z M 186.261719 156.644531 " fill-opacity="1" fill-rule="nonzero"/></g><g clip-path="url(#1acd99e88d)"><path fill="#000000" d="M 146.644531 213.257812 C 142.828125 213.257812 139.738281 210.164062 139.738281 206.34375 C 139.738281 180.683594 160.59375 159.8125 186.242188 159.8125 C 190.058594 159.8125 193.148438 162.90625 193.148438 166.726562 C 193.148438 170.542969 190.058594 173.636719 186.242188 173.636719 C 168.210938 173.636719 153.535156 188.320312 153.535156 206.363281 C 153.535156 210.164062 150.460938 213.257812 146.644531 213.257812 Z M 146.644531 213.257812 " fill-opacity="1" fill-rule="nonzero"/></g><path fill="#000000" d="M 69.171875 295.664062 C 58.5625 295.664062 49.9375 287.035156 49.9375 276.417969 C 49.9375 265.804688 58.5625 257.171875 69.171875 257.171875 C 79.78125 257.171875 88.40625 265.804688 88.40625 276.417969 C 88.40625 287.035156 79.78125 295.664062 69.171875 295.664062 Z M 69.171875 270.976562 C 66.175781 270.976562 63.734375 273.421875 63.734375 276.417969 C 63.734375 279.417969 66.175781 281.859375 69.171875 281.859375 C 72.167969 281.859375 74.609375 279.417969 74.609375 276.417969 C 74.609375 273.421875 72.167969 270.976562 69.171875 270.976562 Z M 69.171875 270.976562 " fill-opacity="1" fill-rule="nonzero"/><g clip-path="url(#4f69f6b3e6)"><path fill="#000000" d="M 186.605469 32.992188 C 182.789062 32.992188 179.695312 29.902344 179.695312 26.082031 L 179.695312 6.910156 C 179.695312 3.09375 182.789062 0 186.605469 0 C 190.421875 0 193.511719 3.09375 193.511719 6.910156 L 193.511719 26.101562 C 193.492188 29.902344 190.402344 32.992188 186.605469 32.992188 Z M 186.605469 32.992188 " fill-opacity="1" fill-rule="nonzero"/></g><path fill="#000000" d="M 152.753906 43.515625 C 150.976562 43.515625 149.222656 42.847656 147.867188 41.492188 L 134.320312 27.933594 C 131.628906 25.242188 131.628906 20.871094 134.320312 18.175781 C 137.007812 15.484375 141.378906 15.484375 144.070312 18.175781 L 157.617188 31.734375 C 160.308594 34.425781 160.308594 38.796875 157.617188 41.492188 C 156.28125 42.847656 154.507812 43.515625 152.753906 43.515625 Z M 152.753906 43.515625 " fill-opacity="1" fill-rule="nonzero"/><g clip-path="url(#19e9da83e9)"><path fill="#000000" d="M 186.605469 374.921875 C 182.789062 374.921875 179.695312 371.832031 179.695312 368.011719 L 179.695312 348.839844 C 179.695312 345.023438 182.789062 341.929688 186.605469 341.929688 C 190.421875 341.929688 193.511719 345.023438 193.511719 348.839844 L 193.511719 368.03125 C 193.492188 371.847656 190.402344 374.921875 186.605469 374.921875 Z M 186.605469 374.921875 " fill-opacity="1" fill-rule="nonzero"/></g><path fill="#000000" d="M 139.183594 358.789062 C 137.410156 358.789062 135.65625 358.121094 134.300781 356.765625 C 131.609375 354.074219 131.609375 349.699219 134.300781 347.007812 L 147.847656 333.453125 C 150.539062 330.761719 154.910156 330.761719 157.597656 333.453125 C 160.289062 336.144531 160.289062 340.515625 157.597656 343.210938 L 144.050781 356.765625 C 142.714844 358.101562 140.960938 358.789062 139.183594 358.789062 Z M 139.183594 358.789062 " fill-opacity="1" fill-rule="nonzero"/><path fill="#0cc0df" d="M 305.136719 151.488281 L 276.820312 151.488281 C 269.890625 151.488281 264.257812 145.855469 264.257812 138.925781 L 264.257812 129.683594 C 264.257812 122.753906 269.890625 117.121094 276.820312 117.121094 L 305.136719 117.121094 C 312.066406 117.121094 317.699219 122.753906 317.699219 129.683594 L 317.699219 138.925781 C 317.71875 145.855469 312.066406 151.488281 305.136719 151.488281 Z M 278.082031 137.683594 L 303.914062 137.683594 L 303.914062 130.925781 L 278.082031 130.925781 Z M 278.082031 137.683594 " fill-opacity="1" fill-rule="nonzero"/><g clip-path="url(#0caf83aeb1)"><path fill="#0cc0df" d="M 317.011719 97.089844 L 250.222656 97.089844 L 241.648438 68.050781 C 239.414062 60.527344 231.777344 55.257812 223.050781 55.257812 L 151.871094 55.257812 C 143.144531 55.257812 135.488281 60.507812 133.273438 68.050781 L 124.699219 97.074219 L 106.945312 97.074219 L 106.945312 86.339844 C 106.945312 80.003906 101.789062 74.867188 95.46875 74.867188 L 67.609375 74.867188 C 61.273438 74.867188 56.136719 80.023438 56.136719 86.339844 L 56.136719 97.246094 C 40.667969 98.21875 28.355469 110.953125 28.355469 126.648438 L 28.355469 290.109375 C 28.355469 306.414062 41.605469 319.667969 57.910156 319.667969 L 317.011719 319.667969 C 333.320312 319.667969 346.570312 306.414062 346.570312 290.109375 L 346.570312 126.648438 C 346.570312 110.34375 333.320312 97.089844 317.011719 97.089844 Z M 146.523438 71.964844 C 146.945312 70.53125 149.0625 69.0625 151.890625 69.0625 L 223.050781 69.0625 C 225.878906 69.0625 227.996094 70.53125 228.417969 71.945312 L 235.824219 97.074219 L 139.117188 97.074219 Z M 69.921875 88.691406 L 93.140625 88.691406 L 93.140625 97.089844 L 69.921875 97.089844 Z M 57.910156 110.894531 L 317.011719 110.894531 C 325.699219 110.894531 332.765625 117.960938 332.765625 126.648438 L 332.765625 157.425781 L 253.660156 157.425781 C 238.5 136.617188 214.003906 123.019531 186.335938 123.019531 C 158.667969 123.019531 134.191406 136.617188 119.011719 157.425781 L 42.160156 157.425781 L 42.160156 126.648438 C 42.160156 117.960938 49.222656 110.894531 57.910156 110.894531 Z M 186.355469 136.824219 C 224.695312 136.824219 255.894531 168.023438 255.894531 206.363281 C 255.894531 244.703125 224.695312 275.902344 186.355469 275.902344 C 148.015625 275.902344 116.816406 244.703125 116.816406 206.363281 C 116.816406 168.023438 148.015625 136.824219 186.355469 136.824219 Z M 317.011719 305.863281 L 57.910156 305.863281 C 49.222656 305.863281 42.160156 298.796875 42.160156 290.109375 L 42.160156 171.230469 L 110.878906 171.230469 C 105.875 181.925781 103.011719 193.800781 103.011719 206.363281 C 103.011719 252.324219 140.394531 289.707031 186.355469 289.707031 C 232.3125 289.707031 269.699219 252.324219 269.699219 206.363281 C 269.699219 193.800781 266.835938 181.925781 261.832031 171.230469 L 332.765625 171.230469 L 332.765625 290.109375 C 332.765625 298.796875 325.699219 305.863281 317.011719 305.863281 Z M 317.011719 305.863281 " fill-opacity="1" fill-rule="nonzero"/></g><g clip-path="url(#42e79b6669)"><path fill="#0cc0df" d="M 206.652344 75.152344 L 168.273438 75.152344 C 164.453125 75.152344 161.359375 78.246094 161.359375 82.066406 C 161.359375 85.882812 164.453125 88.976562 168.273438 88.976562 L 206.671875 88.976562 C 210.488281 88.976562 213.582031 85.882812 213.582031 82.066406 C 213.582031 78.246094 210.46875 75.152344 206.652344 75.152344 Z M 206.652344 75.152344 " fill-opacity="1" fill-rule="nonzero"/></g><g clip-path="url(#88a66d8b44)"><path fill="#0cc0df" d="M 186.355469 269.890625 C 151.316406 269.890625 122.828125 241.382812 122.828125 206.363281 C 122.828125 171.328125 151.335938 142.839844 186.355469 142.839844 C 221.390625 142.839844 249.878906 171.347656 249.878906 206.363281 C 249.878906 241.382812 221.371094 269.890625 186.355469 269.890625 Z M 186.355469 156.644531 C 158.9375 156.644531 136.632812 178.945312 136.632812 206.363281 C 136.632812 233.78125 158.9375 256.085938 186.355469 256.085938 C 213.773438 256.085938 236.074219 233.78125 236.074219 206.363281 C 236.074219 178.945312 213.773438 156.644531 186.355469 156.644531 Z M 186.355469 156.644531 " fill-opacity="1" fill-rule="nonzero"/></g><g clip-path="url(#6b9f200433)"><path fill="#0cc0df" d="M 146.714844 213.257812 C 142.898438 213.257812 139.804688 210.164062 139.804688 206.34375 C 139.804688 180.683594 160.671875 159.8125 186.335938 159.8125 C 190.152344 159.8125 193.246094 162.90625 193.246094 166.726562 C 193.246094 170.542969 190.152344 173.636719 186.335938 173.636719 C 168.292969 173.636719 153.609375 188.320312 153.609375 206.363281 C 153.609375 210.164062 150.535156 213.257812 146.714844 213.257812 Z M 146.714844 213.257812 " fill-opacity="1" fill-rule="nonzero"/></g><g clip-path="url(#83531f4417)"><path fill="#0cc0df" d="M 186.699219 32.992188 C 182.878906 32.992188 179.785156 29.902344 179.785156 26.082031 L 179.785156 6.910156 C 179.785156 3.09375 182.878906 0 186.699219 0 C 190.515625 0 193.609375 3.09375 193.609375 6.910156 L 193.609375 26.101562 C 193.589844 29.902344 190.496094 32.992188 186.699219 32.992188 Z M 186.699219 32.992188 " fill-opacity="1" fill-rule="nonzero"/></g><path fill="#0cc0df" d="M 222.097656 43.515625 C 220.320312 43.515625 218.566406 42.847656 217.210938 41.492188 C 214.515625 38.796875 214.515625 34.425781 217.210938 31.734375 L 230.765625 18.175781 C 233.457031 15.484375 237.832031 15.484375 240.523438 18.175781 C 243.214844 20.871094 243.214844 25.242188 240.523438 27.933594 L 226.964844 41.492188 C 225.628906 42.847656 223.875 43.515625 222.097656 43.515625 Z M 222.097656 43.515625 " fill-opacity="1" fill-rule="nonzero"/><g clip-path="url(#36c214f875)"><path fill="#0cc0df" d="M 186.699219 374.921875 C 182.878906 374.921875 179.785156 371.832031 179.785156 368.011719 L 179.785156 348.839844 C 179.785156 345.023438 182.878906 341.929688 186.699219 341.929688 C 190.515625 341.929688 193.609375 345.023438 193.609375 348.839844 L 193.609375 368.03125 C 193.589844 371.847656 190.496094 374.921875 186.699219 374.921875 Z M 186.699219 374.921875 " fill-opacity="1" fill-rule="nonzero"/></g><path fill="#0cc0df" d="M 235.671875 358.789062 C 233.898438 358.789062 232.140625 358.121094 230.785156 356.765625 L 217.230469 343.210938 C 214.535156 340.515625 214.535156 336.144531 217.230469 333.453125 C 219.921875 330.761719 224.292969 330.761719 226.984375 333.453125 L 240.542969 347.007812 C 243.234375 349.699219 243.234375 354.074219 240.542969 356.765625 C 239.207031 358.101562 237.429688 358.789062 235.671875 358.789062 Z M 235.671875 358.789062 " fill-opacity="1" fill-rule="nonzero"/></svg>