<svg xmlns="http://www.w3.org/2000/svg" xmlns:xlink="http://www.w3.org/1999/xlink" width="500" zoomAndPan="magnify" viewBox="0 0 375 374.999991" height="500" preserveAspectRatio="xMidYMid meet" version="1.0"><defs><g/><clipPath id="f30188a38b"><path d="M 90 61 L 284.984375 61 L 284.984375 223 L 90 223 Z M 90 61 " clip-rule="nonzero"/></clipPath><clipPath id="a61c69461f"><path d="M 182 27.917969 L 192 27.917969 L 192 49 L 182 49 Z M 182 27.917969 " clip-rule="nonzero"/></clipPath><clipPath id="83af324d0c"><path d="M 182 236 L 192 236 L 192 256.667969 L 182 256.667969 Z M 182 236 " clip-rule="nonzero"/></clipPath></defs><path fill="#000000" d="M 259.238281 120.324219 L 241.96875 120.324219 C 237.738281 120.324219 234.304688 116.890625 234.304688 112.660156 L 234.304688 107.023438 C 234.304688 102.796875 237.738281 99.359375 241.96875 99.359375 L 259.238281 99.359375 C 263.46875 99.359375 266.902344 102.796875 266.902344 107.023438 L 266.902344 112.660156 C 266.914062 116.890625 263.46875 120.324219 259.238281 120.324219 Z M 242.738281 111.902344 L 258.496094 111.902344 L 258.496094 107.78125 L 242.738281 107.78125 Z M 242.738281 111.902344 " fill-opacity="1" fill-rule="nonzero"/><g clip-path="url(#f30188a38b)"><path fill="#000000" d="M 266.484375 87.140625 L 225.742188 87.140625 L 220.515625 69.425781 C 219.152344 64.835938 214.492188 61.621094 209.167969 61.621094 L 165.75 61.621094 C 160.425781 61.621094 155.757812 64.824219 154.40625 69.425781 L 149.175781 87.128906 L 138.34375 87.128906 L 138.34375 80.585938 C 138.34375 76.71875 135.199219 73.585938 131.34375 73.585938 L 114.351562 73.585938 C 110.484375 73.585938 107.351562 76.730469 107.351562 80.585938 L 107.351562 87.234375 C 97.917969 87.828125 90.40625 95.597656 90.40625 105.171875 L 90.40625 204.882812 C 90.40625 214.828125 98.488281 222.914062 108.433594 222.914062 L 266.484375 222.914062 C 276.429688 222.914062 284.515625 214.828125 284.515625 204.882812 L 284.515625 105.171875 C 284.515625 95.226562 276.429688 87.140625 266.484375 87.140625 Z M 162.488281 71.8125 C 162.746094 70.941406 164.039062 70.042969 165.761719 70.042969 L 209.167969 70.042969 C 210.894531 70.042969 212.1875 70.941406 212.441406 71.800781 L 216.960938 87.128906 L 157.96875 87.128906 Z M 115.761719 82.015625 L 129.925781 82.015625 L 129.925781 87.140625 L 115.761719 87.140625 Z M 108.433594 95.5625 L 266.484375 95.5625 C 271.785156 95.5625 276.09375 99.871094 276.09375 105.171875 L 276.09375 123.945312 L 227.839844 123.945312 C 218.59375 111.25 203.648438 102.957031 186.773438 102.957031 C 169.894531 102.957031 154.964844 111.25 145.707031 123.945312 L 98.828125 123.945312 L 98.828125 105.171875 C 98.828125 99.871094 103.136719 95.5625 108.433594 95.5625 Z M 186.785156 111.378906 C 210.171875 111.378906 229.203125 130.410156 229.203125 153.796875 C 229.203125 177.1875 210.171875 196.21875 186.785156 196.21875 C 163.398438 196.21875 144.367188 177.1875 144.367188 153.796875 C 144.367188 130.410156 163.398438 111.378906 186.785156 111.378906 Z M 266.484375 214.492188 L 108.433594 214.492188 C 103.136719 214.492188 98.828125 210.183594 98.828125 204.882812 L 98.828125 132.367188 L 140.742188 132.367188 C 137.691406 138.890625 135.945312 146.132812 135.945312 153.796875 C 135.945312 181.832031 158.75 204.636719 186.785156 204.636719 C 214.820312 204.636719 237.625 181.832031 237.625 153.796875 C 237.625 146.132812 235.875 138.890625 232.824219 132.367188 L 276.09375 132.367188 L 276.09375 204.882812 C 276.09375 210.183594 271.785156 214.492188 266.484375 214.492188 Z M 266.484375 214.492188 " fill-opacity="1" fill-rule="nonzero"/></g><path fill="#000000" d="M 199.164062 73.757812 L 175.753906 73.757812 C 173.425781 73.757812 171.539062 75.644531 171.539062 77.976562 C 171.539062 80.304688 173.425781 82.191406 175.753906 82.191406 L 199.175781 82.191406 C 201.507812 82.191406 203.394531 80.304688 203.394531 77.976562 C 203.394531 75.644531 201.496094 73.757812 199.164062 73.757812 Z M 199.164062 73.757812 " fill-opacity="1" fill-rule="nonzero"/><path fill="#000000" d="M 186.785156 192.546875 C 165.414062 192.546875 148.035156 175.160156 148.035156 153.796875 C 148.035156 132.425781 165.425781 115.046875 186.785156 115.046875 C 208.15625 115.046875 225.535156 132.4375 225.535156 153.796875 C 225.535156 175.160156 208.144531 192.546875 186.785156 192.546875 Z M 186.785156 123.46875 C 170.058594 123.46875 156.457031 137.074219 156.457031 153.796875 C 156.457031 170.523438 170.058594 184.128906 186.785156 184.128906 C 203.507812 184.128906 217.113281 170.523438 217.113281 153.796875 C 217.113281 137.074219 203.507812 123.46875 186.785156 123.46875 Z M 186.785156 123.46875 " fill-opacity="1" fill-rule="nonzero"/><path fill="#000000" d="M 162.605469 158.003906 C 160.277344 158.003906 158.390625 156.117188 158.390625 153.785156 C 158.390625 138.132812 171.121094 125.402344 186.773438 125.402344 C 189.101562 125.402344 190.988281 127.289062 190.988281 129.617188 C 190.988281 131.949219 189.101562 133.835938 186.773438 133.835938 C 175.765625 133.835938 166.808594 142.792969 166.808594 153.796875 C 166.808594 156.117188 164.933594 158.003906 162.605469 158.003906 Z M 162.605469 158.003906 " fill-opacity="1" fill-rule="nonzero"/><path fill="#000000" d="M 115.320312 208.273438 C 108.84375 208.273438 103.578125 203.007812 103.578125 196.53125 C 103.578125 190.054688 108.84375 184.792969 115.320312 184.792969 C 121.792969 184.792969 127.058594 190.054688 127.058594 196.53125 C 127.058594 203.007812 121.792969 208.273438 115.320312 208.273438 Z M 115.320312 193.210938 C 113.492188 193.210938 112 194.703125 112 196.53125 C 112 198.359375 113.492188 199.851562 115.320312 199.851562 C 117.148438 199.851562 118.636719 198.359375 118.636719 196.53125 C 118.636719 194.703125 117.148438 193.210938 115.320312 193.210938 Z M 115.320312 193.210938 " fill-opacity="1" fill-rule="nonzero"/><g clip-path="url(#a61c69461f)"><path fill="#000000" d="M 186.992188 48.042969 C 184.664062 48.042969 182.777344 46.15625 182.777344 43.824219 L 182.777344 32.132812 C 182.777344 29.804688 184.664062 27.917969 186.992188 27.917969 C 189.324219 27.917969 191.210938 29.804688 191.210938 32.132812 L 191.210938 43.835938 C 191.199219 46.15625 189.3125 48.042969 186.992188 48.042969 Z M 186.992188 48.042969 " fill-opacity="1" fill-rule="nonzero"/></g><path fill="#000000" d="M 166.332031 54.460938 C 165.25 54.460938 164.179688 54.050781 163.351562 53.226562 L 155.082031 44.957031 C 153.4375 43.3125 153.4375 40.648438 155.082031 39.003906 C 156.722656 37.363281 159.390625 37.363281 161.03125 39.003906 L 169.300781 47.273438 C 170.945312 48.914062 170.945312 51.582031 169.300781 53.226562 C 168.488281 54.050781 167.402344 54.460938 166.332031 54.460938 Z M 166.332031 54.460938 " fill-opacity="1" fill-rule="nonzero"/><path fill="#000000" d="M 208.585938 54.460938 C 207.503906 54.460938 206.433594 54.050781 205.605469 53.226562 C 203.964844 51.582031 203.964844 48.914062 205.605469 47.273438 L 213.875 39.003906 C 215.515625 37.363281 218.183594 37.363281 219.828125 39.003906 C 221.46875 40.648438 221.46875 43.3125 219.828125 44.957031 L 211.558594 53.226562 C 210.742188 54.050781 209.671875 54.460938 208.585938 54.460938 Z M 208.585938 54.460938 " fill-opacity="1" fill-rule="nonzero"/><g clip-path="url(#83af324d0c)"><path fill="#000000" d="M 186.992188 256.621094 C 184.664062 256.621094 182.777344 254.734375 182.777344 252.402344 L 182.777344 240.710938 C 182.777344 238.378906 184.664062 236.492188 186.992188 236.492188 C 189.324219 236.492188 191.210938 238.378906 191.210938 240.710938 L 191.210938 252.414062 C 191.199219 254.746094 189.3125 256.621094 186.992188 256.621094 Z M 186.992188 256.621094 " fill-opacity="1" fill-rule="nonzero"/></g><path fill="#000000" d="M 158.050781 246.777344 C 156.96875 246.777344 155.898438 246.371094 155.070312 245.542969 C 153.425781 243.902344 153.425781 241.234375 155.070312 239.589844 L 163.339844 231.320312 C 164.980469 229.679688 167.648438 229.679688 169.289062 231.320312 C 170.933594 232.964844 170.933594 235.632812 169.289062 237.273438 L 161.019531 245.542969 C 160.207031 246.359375 159.132812 246.777344 158.050781 246.777344 Z M 158.050781 246.777344 " fill-opacity="1" fill-rule="nonzero"/><path fill="#000000" d="M 216.867188 246.777344 C 215.785156 246.777344 214.714844 246.371094 213.886719 245.542969 L 205.617188 237.273438 C 203.976562 235.632812 203.976562 232.964844 205.617188 231.320312 C 207.261719 229.679688 209.925781 229.679688 211.570312 231.320312 L 219.839844 239.589844 C 221.480469 241.234375 221.480469 243.902344 219.839844 245.542969 C 219.023438 246.359375 217.941406 246.777344 216.867188 246.777344 Z M 216.867188 246.777344 " fill-opacity="1" fill-rule="nonzero"/><g fill="#0cc0df" fill-opacity="1"><g transform="translate(42.478123, 346.009429)"><g><path d="M 19.75 -1.640625 C 19.75 -1.203125 19.597656 -0.816406 19.296875 -0.484375 C 19.003906 -0.160156 18.640625 0 18.203125 0 L 7.21875 0 C 6.78125 0 6.421875 -0.160156 6.140625 -0.484375 C 5.867188 -0.816406 5.734375 -1.203125 5.734375 -1.640625 L 5.734375 -59.34375 C 5.734375 -60.382812 6.226562 -60.90625 7.21875 -60.90625 L 18.203125 -60.90625 C 19.234375 -60.90625 19.75 -60.382812 19.75 -59.34375 Z M 19.75 -1.640625 "/></g></g></g><g fill="#0cc0df" fill-opacity="1"><g transform="translate(67.971597, 346.009429)"><g><path d="M 61.15625 -1.140625 C 61.15625 -0.703125 61.003906 -0.398438 60.703125 -0.234375 C 60.398438 -0.078125 60.082031 0 59.75 0 L 48.9375 0 C 48.550781 0 48.234375 -0.160156 47.984375 -0.484375 C 47.742188 -0.816406 47.625 -1.203125 47.625 -1.640625 L 47.625 -35.828125 C 47.625 -36.253906 47.488281 -36.46875 47.21875 -36.46875 C 47 -36.46875 46.78125 -36.28125 46.5625 -35.90625 L 39.1875 -22.375 C 38.632812 -21.445312 37.8125 -20.984375 36.71875 -20.984375 L 30.171875 -20.984375 C 29.078125 -20.984375 28.253906 -21.445312 27.703125 -22.375 L 20.328125 -35.90625 C 20.109375 -36.28125 19.890625 -36.46875 19.671875 -36.46875 C 19.398438 -36.46875 19.265625 -36.253906 19.265625 -35.828125 L 19.265625 -1.640625 C 19.265625 -1.203125 19.140625 -0.816406 18.890625 -0.484375 C 18.648438 -0.160156 18.335938 0 17.953125 0 L 7.125 0 C 6.800781 0 6.488281 -0.078125 6.1875 -0.234375 C 5.882812 -0.398438 5.734375 -0.703125 5.734375 -1.140625 L 5.734375 -58.109375 C 5.734375 -58.984375 6.003906 -59.664062 6.546875 -60.15625 C 7.097656 -60.65625 7.8125 -60.90625 8.6875 -60.90625 L 16.390625 -60.90625 C 18.035156 -60.90625 19.238281 -60.164062 20 -58.6875 L 32.546875 -35.328125 C 32.921875 -34.617188 33.21875 -34.265625 33.4375 -34.265625 C 33.71875 -34.265625 34.019531 -34.617188 34.34375 -35.328125 L 46.890625 -58.6875 C 47.648438 -60.164062 48.851562 -60.90625 50.5 -60.90625 L 58.203125 -60.90625 C 59.078125 -60.90625 59.785156 -60.644531 60.328125 -60.125 C 60.878906 -59.601562 61.15625 -58.90625 61.15625 -58.03125 Z M 61.15625 -1.140625 "/></g></g></g><g fill="#0cc0df" fill-opacity="1"><g transform="translate(134.861234, 346.009429)"><g><path d="M 47.546875 -49.84375 C 47.546875 -49.40625 47.4375 -49.113281 47.21875 -48.96875 C 47 -48.832031 46.695312 -48.765625 46.3125 -48.765625 C 46.257812 -48.765625 46.21875 -48.765625 46.1875 -48.765625 C 46.15625 -48.765625 46.113281 -48.765625 46.0625 -48.765625 C 44.09375 -48.878906 41.632812 -49.015625 38.6875 -49.171875 C 35.738281 -49.335938 32.515625 -49.421875 29.015625 -49.421875 C 26.828125 -49.421875 24.925781 -49.007812 23.3125 -48.1875 C 21.707031 -47.375 20.46875 -45.957031 19.59375 -43.9375 C 18.71875 -41.914062 18.28125 -39.101562 18.28125 -35.5 L 18.28125 -25.25 C 18.28125 -21.476562 18.769531 -18.582031 19.75 -16.5625 C 20.738281 -14.539062 21.941406 -13.160156 23.359375 -12.421875 C 24.785156 -11.679688 26.148438 -11.3125 27.453125 -11.3125 C 29.691406 -11.3125 31.796875 -11.394531 33.765625 -11.5625 L 33.765625 -30.40625 C 33.765625 -30.84375 33.914062 -31.222656 34.21875 -31.546875 C 34.519531 -31.878906 34.890625 -32.046875 35.328125 -32.046875 L 45.828125 -32.046875 C 46.253906 -32.046875 46.628906 -31.878906 46.953125 -31.546875 C 47.285156 -31.222656 47.453125 -30.84375 47.453125 -30.40625 L 47.453125 -2.875 C 47.453125 -1.832031 46.910156 -1.203125 45.828125 -0.984375 C 43.640625 -0.546875 41.054688 -0.148438 38.078125 0.203125 C 35.097656 0.554688 31.554688 0.734375 27.453125 0.734375 C 25.109375 0.734375 22.597656 0.335938 19.921875 -0.453125 C 17.242188 -1.242188 14.703125 -2.59375 12.296875 -4.5 C 9.890625 -6.414062 7.921875 -9.066406 6.390625 -12.453125 C 4.859375 -15.847656 4.09375 -20.140625 4.09375 -25.328125 L 4.09375 -35.5 C 4.09375 -40.738281 4.816406 -45.050781 6.265625 -48.4375 C 7.710938 -51.832031 9.648438 -54.484375 12.078125 -56.390625 C 14.515625 -58.304688 17.207031 -59.660156 20.15625 -60.453125 C 23.113281 -61.242188 26.066406 -61.640625 29.015625 -61.640625 C 33.117188 -61.640625 36.617188 -61.40625 39.515625 -60.9375 C 42.410156 -60.476562 44.617188 -60.082031 46.140625 -59.75 C 47.078125 -59.59375 47.546875 -59.1875 47.546875 -58.53125 Z M 47.546875 -49.84375 "/></g></g></g><g fill="#000000" fill-opacity="1"><g transform="translate(187.743738, 346.009429)"><g><path d="M 17.703125 -1.640625 C 17.703125 -1.203125 17.535156 -0.816406 17.203125 -0.484375 C 16.878906 -0.160156 16.5 0 16.0625 0 L 6.46875 0 C 6.03125 0 5.632812 -0.160156 5.28125 -0.484375 C 4.925781 -0.816406 4.75 -1.203125 4.75 -1.640625 L 4.75 -11.96875 C 4.75 -12.40625 4.925781 -12.773438 5.28125 -13.078125 C 5.632812 -13.378906 6.03125 -13.53125 6.46875 -13.53125 L 16.0625 -13.53125 C 16.5 -13.53125 16.878906 -13.378906 17.203125 -13.078125 C 17.535156 -12.773438 17.703125 -12.40625 17.703125 -11.96875 Z M 17.703125 -1.640625 "/></g></g></g><g fill="#000000" fill-opacity="1"><g transform="translate(210.204232, 346.009429)"><g><path d="M 18.859375 -53.9375 C 18.859375 -53.5 18.691406 -53.113281 18.359375 -52.78125 C 18.035156 -52.457031 17.65625 -52.296875 17.21875 -52.296875 L 6.5625 -52.296875 C 6.125 -52.296875 5.738281 -52.457031 5.40625 -52.78125 C 5.082031 -53.113281 4.921875 -53.5 4.921875 -53.9375 L 4.921875 -61.5625 C 4.921875 -62 5.082031 -62.378906 5.40625 -62.703125 C 5.738281 -63.035156 6.125 -63.203125 6.5625 -63.203125 L 17.21875 -63.203125 C 17.65625 -63.203125 18.035156 -63.035156 18.359375 -62.703125 C 18.691406 -62.378906 18.859375 -62 18.859375 -61.5625 Z M 18.53125 -1.640625 C 18.53125 -1.203125 18.363281 -0.816406 18.03125 -0.484375 C 17.707031 -0.160156 17.328125 0 16.890625 0 L 6.890625 0 C 6.453125 0 6.066406 -0.160156 5.734375 -0.484375 C 5.410156 -0.816406 5.25 -1.203125 5.25 -1.640625 L 5.25 -45.328125 C 5.25 -45.765625 5.410156 -46.144531 5.734375 -46.46875 C 6.066406 -46.800781 6.453125 -46.96875 6.890625 -46.96875 L 16.890625 -46.96875 C 17.328125 -46.96875 17.707031 -46.800781 18.03125 -46.46875 C 18.363281 -46.144531 18.53125 -45.765625 18.53125 -45.328125 Z M 18.53125 -1.640625 "/></g></g></g><g fill="#000000" fill-opacity="1"><g transform="translate(233.976286, 346.009429)"><g><path d="M 45.25 -1.71875 C 45.25 -1.28125 45.070312 -0.882812 44.71875 -0.53125 C 44.363281 -0.175781 43.96875 0 43.53125 0 L 33.609375 0 C 33.171875 0 32.785156 -0.175781 32.453125 -0.53125 C 32.128906 -0.882812 31.96875 -1.28125 31.96875 -1.71875 L 31.96875 -29.015625 C 31.96875 -31.910156 31.582031 -33.90625 30.8125 -35 C 30.050781 -36.09375 28.414062 -36.640625 25.90625 -36.640625 C 24.695312 -36.640625 23.460938 -36.394531 22.203125 -35.90625 C 20.953125 -35.414062 19.617188 -34.785156 18.203125 -34.015625 L 18.203125 -1.71875 C 18.203125 -1.28125 18.035156 -0.882812 17.703125 -0.53125 C 17.378906 -0.175781 17 0 16.5625 0 L 6.640625 0 C 6.203125 0 5.804688 -0.175781 5.453125 -0.53125 C 5.097656 -0.882812 4.921875 -1.28125 4.921875 -1.71875 L 4.921875 -45.328125 C 4.921875 -45.765625 5.082031 -46.144531 5.40625 -46.46875 C 5.738281 -46.800781 6.125 -46.96875 6.5625 -46.96875 L 15.734375 -46.96875 C 16.171875 -46.96875 16.550781 -46.800781 16.875 -46.46875 C 17.207031 -46.144531 17.375 -45.765625 17.375 -45.328125 L 17.375 -43.359375 C 19.613281 -44.941406 21.742188 -46.046875 23.765625 -46.671875 C 25.785156 -47.304688 28.109375 -47.625 30.734375 -47.625 C 34.722656 -47.625 37.753906 -46.789062 39.828125 -45.125 C 41.910156 -43.457031 43.332031 -41.21875 44.09375 -38.40625 C 44.863281 -35.59375 45.25 -32.460938 45.25 -29.015625 Z M 45.25 -1.71875 "/></g></g></g><g fill="#000000" fill-opacity="1"><g transform="translate(284.143519, 346.009429)"><g><path d="M 44.671875 -21.3125 C 44.671875 -20 44.097656 -19.34375 42.953125 -19.34375 L 16.796875 -19.34375 L 16.796875 -19.1875 C 16.796875 -17.65625 17.054688 -16.203125 17.578125 -14.828125 C 18.097656 -13.460938 18.972656 -12.359375 20.203125 -11.515625 C 21.429688 -10.671875 23.113281 -10.25 25.25 -10.25 C 27 -10.25 28.882812 -10.285156 30.90625 -10.359375 C 32.925781 -10.441406 34.835938 -10.535156 36.640625 -10.640625 C 38.441406 -10.753906 39.890625 -10.867188 40.984375 -10.984375 C 41.035156 -10.984375 41.070312 -10.984375 41.09375 -10.984375 C 41.125 -10.984375 41.171875 -10.984375 41.234375 -10.984375 C 42.265625 -10.984375 42.78125 -10.546875 42.78125 -9.671875 L 42.78125 -3.4375 C 42.78125 -2.78125 42.671875 -2.285156 42.453125 -1.953125 C 42.234375 -1.628906 41.769531 -1.390625 41.0625 -1.234375 C 38.4375 -0.578125 35.867188 -0.0859375 33.359375 0.234375 C 30.847656 0.566406 27.816406 0.734375 24.265625 0.734375 C 21.804688 0.734375 19.359375 0.378906 16.921875 -0.328125 C 14.492188 -1.035156 12.28125 -2.207031 10.28125 -3.84375 C 8.289062 -5.488281 6.691406 -7.660156 5.484375 -10.359375 C 4.285156 -13.066406 3.6875 -16.390625 3.6875 -20.328125 L 3.6875 -26.0625 C 3.6875 -32.675781 5.515625 -37.921875 9.171875 -41.796875 C 12.835938 -45.679688 17.921875 -47.625 24.421875 -47.625 C 28.898438 -47.625 32.644531 -46.679688 35.65625 -44.796875 C 38.664062 -42.910156 40.921875 -40.351562 42.421875 -37.125 C 43.921875 -33.90625 44.671875 -30.21875 44.671875 -26.0625 Z M 31.71875 -27.546875 L 31.71875 -27.875 C 31.71875 -30.925781 31.0625 -33.203125 29.75 -34.703125 C 28.4375 -36.210938 26.632812 -36.96875 24.34375 -36.96875 C 22.101562 -36.96875 20.285156 -36.203125 18.890625 -34.671875 C 17.492188 -33.140625 16.796875 -30.875 16.796875 -27.875 L 16.796875 -27.546875 Z M 31.71875 -27.546875 "/></g></g></g></svg>